<?xml version="1.0" encoding="UTF-8"?>
<!DOCTYPE svg PUBLIC "-//W3C//DTD SVG 1.1//EN" "http://www.w3.org/Graphics/SVG/1.1/DTD/svg11.dtd">
<!-- Creator: CorelDRAW 2021 (64-Bit) -->
<svg xmlns="http://www.w3.org/2000/svg" xml:space="preserve" width="33.6259mm" height="33.6259mm" version="1.1" style="shape-rendering:geometricPrecision; text-rendering:geometricPrecision; image-rendering:optimizeQuality; fill-rule:evenodd; clip-rule:evenodd"
viewBox="0 0 320.45 320.45"
 xmlns:xlink="http://www.w3.org/1999/xlink"
 xmlns:xodm="http://www.corel.com/coreldraw/odm/2003">
 <defs>
  <style type="text/css">
   <![CDATA[
    .fil0 {fill:black;fill-rule:nonzero}
   ]]>
  </style>
 </defs>
 <g id="Layer_x0020_1">
  <metadata id="CorelCorpID_0Corel-Layer"/>
  <path class="fil0" d="M259.35 320.45l-87.7 0c-16.82,0 -32.09,-6.87 -43.16,-17.94 -11.07,-11.07 -17.94,-26.34 -17.94,-43.16l0 -28.96 26.89 0 0 28.96c0,9.39 3.85,17.94 10.06,24.14 6.2,6.2 14.75,10.06 24.14,10.06l87.7 0c9.39,0 17.94,-3.85 24.14,-10.06 6.2,-6.21 10.06,-14.75 10.06,-24.14l0 -87.7c0,-9.39 -3.85,-17.94 -10.06,-24.14 -6.2,-6.2 -14.75,-10.06 -24.14,-10.06l-87.7 0c-9.39,0 -17.94,3.85 -24.14,10.06 -4.11,4.11 -7.19,9.26 -8.8,14.99l-27.46 0c2,-13.17 8.23,-24.99 17.25,-34.01 11.07,-11.07 26.34,-17.94 43.16,-17.94l87.7 0c16.82,0 32.09,6.87 43.16,17.94 11.07,11.07 17.94,26.34 17.94,43.16l0 87.7c0,16.81 -6.87,32.09 -17.94,43.16 -11.07,11.07 -26.35,17.94 -43.16,17.94zm-110.56 -110.56l-87.7 0c-16.82,0 -32.09,-6.87 -43.16,-17.94 -11.07,-11.07 -17.94,-26.34 -17.94,-43.16l0 -87.7c0,-16.82 6.87,-32.09 17.94,-43.16 11.07,-11.07 26.34,-17.94 43.16,-17.94l87.7 0c16.82,0 32.09,6.87 43.16,17.94 11.07,11.07 17.94,26.34 17.94,43.16l0 28.96 -26.89 0 0 -28.96c0,-9.39 -3.85,-17.94 -10.06,-24.14 -6.2,-6.2 -14.75,-10.06 -24.14,-10.06l-87.7 0c-9.39,0 -17.94,3.85 -24.14,10.06 -6.2,6.2 -10.06,14.75 -10.06,24.14l0 87.7c0,9.39 3.85,17.94 10.06,24.14 6.2,6.2 14.75,10.06 24.14,10.06l87.7 0c9.39,0 17.94,-3.85 24.14,-10.06 4.11,-4.11 7.19,-9.26 8.8,-14.99l27.46 0c-2,13.17 -8.23,24.99 -17.25,34.01 -11.07,11.07 -26.35,17.94 -43.16,17.94zm132.29 -126.23l-27.72 0c-9.12,0 -16.58,-7.46 -16.58,-16.58l0 -27.72c0,-9.12 7.46,-16.58 16.58,-16.58l27.72 0c9.12,0 16.58,7.46 16.58,16.58l0 27.72c0,9.12 -7.46,16.58 -16.58,16.58zm-214 214l-27.72 0c-9.12,0 -16.58,-7.46 -16.58,-16.58l0 -27.72c0,-9.12 7.46,-16.58 16.58,-16.58l27.72 0c9.12,0 16.58,7.46 16.58,16.58l0 27.72c0,9.12 -7.46,16.58 -16.58,16.58z"/>
 </g>
</svg>
